<svg width="56" height="56" viewBox="0 0 56 56" fill="none" xmlns="http://www.w3.org/2000/svg">
<path fill-rule="evenodd" clip-rule="evenodd" d="M12.9726 9.52126C13.7381 8.75637 15.1399 8.9172 15.9054 9.68208L29.0004 22.7629C29.0888 22.8513 29.1385 22.9712 29.1385 23.0962V26.024L29.1342 26.0196V52.271C29.1342 52.4012 29.0286 52.5 28.8983 52.5H27.2471C27.1169 52.5 27.0113 52.4012 27.0113 52.271V24.0785C27.0113 23.954 26.962 23.8346 26.8742 23.7463L13.0408 9.83153C12.9774 9.76772 12.9089 9.58485 12.9726 9.52126Z" fill="#19575B"/>
<path fill-rule="evenodd" clip-rule="evenodd" d="M24.0615 4.07146C24.8261 3.30741 26.0666 3.30983 26.8282 4.07685L30.4123 7.63612L31.7467 8.96944C31.8388 9.06149 31.8388 9.21072 31.7467 9.30277L24.5819 16.462C24.4898 16.5541 24.3405 16.5541 24.2484 16.462L23.0808 15.2954C22.9887 15.2033 22.9887 15.0541 23.0808 14.962L28.7388 9.30841C28.8309 9.21636 28.8309 9.06713 28.7388 8.97508L24.0615 4.30139C23.998 4.2379 23.998 4.13495 24.0615 4.07146Z" fill="#19575B"/>
<path fill-rule="evenodd" clip-rule="evenodd" d="M45.8399 21.9333C46.6052 21.1686 47.8459 21.1686 48.6112 21.9333C48.675 21.9971 48.675 22.1004 48.6112 22.1641L38.636 32.1317C38.5439 32.2238 38.5439 32.373 38.636 32.465L43.4842 37.3095C43.548 37.3733 43.548 37.4766 43.4842 37.5403C42.7189 38.305 41.4782 38.305 40.7129 37.5403L37.1349 33.965C37.0428 33.873 36.8934 33.873 36.8013 33.965L30.6335 40.1281C30.522 40.2395 30.3315 40.1606 30.3315 40.0031L30.3314 37.6252C30.3314 37.5001 30.3811 37.3802 30.4696 37.2918L39.7196 28.049C39.808 27.9606 39.8578 27.8407 39.8578 27.7156V23.5322C39.8578 22.4507 40.7351 21.574 41.8174 21.574C41.9075 21.574 41.9807 21.6471 41.9807 21.7372V25.5051C41.9807 25.6101 42.1077 25.6627 42.182 25.5884L45.8399 21.9333Z" fill="#19575B"/>
<path fill-rule="evenodd" clip-rule="evenodd" d="M10.2765 16.438C9.51127 15.6733 8.27051 15.6733 7.50523 16.438C7.44146 16.5017 7.44146 16.605 7.50523 16.6688L17.4804 26.6364C17.5725 26.7284 17.5725 26.8777 17.4804 26.9697L12.6322 31.8142C12.5685 31.8779 12.5685 31.9813 12.6322 32.045C13.3975 32.8097 14.6383 32.8097 15.4035 32.045L18.9815 28.4697C19.0737 28.3776 19.223 28.3776 19.3151 28.4697L25.4829 34.6328C25.5944 34.7442 25.7849 34.6653 25.7849 34.5078L25.785 32.1298C25.785 32.0048 25.7353 31.8849 25.6468 31.7965L16.3969 22.5536C16.3084 22.4652 16.2587 22.3453 16.2587 22.2203V18.0368C16.2587 16.9554 15.3813 16.0787 14.2991 16.0787C14.2089 16.0787 14.1358 16.1518 14.1358 16.2419V20.0098C14.1358 20.1148 14.0087 20.1673 13.9344 20.0931L10.2765 16.438Z" fill="#19575B"/>
<path d="M28.9591 15.4149C28.9591 16.6841 29.9888 17.713 31.259 17.713C32.5291 17.713 33.5588 16.6841 33.5588 15.4149C33.5588 14.1457 32.5291 13.1168 31.259 13.1168C29.9888 13.1168 28.9591 14.1457 28.9591 15.4149Z" fill="#19575B"/>
<path d="M31.2465 28.6953C31.2465 29.9645 32.2761 30.9933 33.5463 30.9933C34.8164 30.9933 35.8461 29.9645 35.8461 28.6953C35.8461 27.4261 34.8164 26.3972 33.5463 26.3972C32.2761 26.3972 31.2465 27.4261 31.2465 28.6953Z" fill="#19575B"/>
<path d="M19.8094 23.6579C19.8094 24.9271 20.839 25.9559 22.1092 25.9559C23.3793 25.9559 24.409 24.9271 24.409 23.6579C24.409 22.3887 23.3793 21.3598 22.1092 21.3598C20.839 21.3598 19.8094 22.3887 19.8094 23.6579Z" fill="#19575B"/>
<path d="M44.6417 34.0542C45.9119 34.0542 48.7107 32.9935 48.7107 32.3453C48.7107 31.4615 45.9119 30.5187 44.6417 30.5187C43.3716 30.5187 40.3959 31.5204 40.3959 32.3453C40.3959 33.1703 43.3716 34.0542 44.6417 34.0542Z" fill="#19575B"/>
<path d="M17.6504 43.0534C18.9205 43.0534 21.7193 41.9928 21.7193 41.3446C21.7193 40.4607 18.9205 39.5179 17.6504 39.5179C16.3802 39.5179 13.4045 40.5196 13.4045 41.3446C13.4045 42.1695 16.3802 43.0534 17.6504 43.0534Z" fill="#19575B"/>
<path d="M11.2458 28.5589C12.516 28.5589 15.3148 27.4982 15.3148 26.85C15.3148 25.9662 12.516 25.0234 11.2458 25.0234C9.97568 25.0234 7 26.025 7 26.85C7 27.675 9.97568 28.5589 11.2458 28.5589Z" fill="#19575B"/>
<path d="M37.8836 10.494C38.7818 9.59655 40.0102 6.86904 39.5515 6.4107C38.9261 5.78572 36.2799 7.09658 35.3817 7.99403C34.4836 8.89148 33.0883 11.7023 33.6721 12.2856C34.2559 12.869 36.9855 11.3915 37.8836 10.494Z" fill="#19575B"/>
<path d="M19.3794 8.78625C20.2612 9.69974 22.9682 10.9762 23.4351 10.5262C24.0717 9.91263 22.8078 7.24524 21.926 6.33175C21.0442 5.41827 18.2568 3.9736 17.6626 4.54633C17.0684 5.11906 18.4976 7.87276 19.3794 8.78625Z" fill="#19575B"/>
<path fill-rule="evenodd" clip-rule="evenodd" d="M44.9711 10.8101C45.0334 10.8724 45.0334 10.9734 44.9711 11.0356L39.4308 16.5691C39.3565 16.6433 39.4091 16.7703 39.5142 16.7703L41.9484 16.7703C43.0306 16.7703 43.8717 17.6448 43.8717 18.7261C43.8717 18.8162 43.7864 18.8916 43.6962 18.8916H37.302C37.1768 18.8916 37.0569 18.9413 36.9684 19.0296L30.5665 25.4213C30.455 25.5326 30.3529 25.365 30.3529 25.2075L30.3315 22.9194C30.3315 22.7944 30.4692 22.5865 30.5577 22.4981L42.2629 10.8101C43.0108 10.063 44.2232 10.063 44.9711 10.8101Z" fill="#19575B"/>
<path fill-rule="evenodd" clip-rule="evenodd" d="M20.5248 34.5752C19.7595 33.8105 18.5188 33.8105 17.7535 34.5752C17.6897 34.6389 17.6897 34.7423 17.7535 34.806L19.9438 37.0174L25.4829 42.5595C25.5943 42.6708 25.7849 42.592 25.7849 42.4345L25.7849 40.0565C25.7849 39.9315 25.7352 39.8116 25.6468 39.7232L21.7192 35.7759L20.5248 34.5752Z" fill="#19575B"/>
</svg>
